<mxfile host="app.diagrams.net" modified="2020-07-15T13:37:36.053Z" agent="5.0 (Macintosh)" etag="ztGpx69z5y_wETPpDOY0" version="13.4.4" type="github">
  <diagram id="qDSp3w6wWeXOSqqEmfja" name="Page-1">
    <mxGraphModel dx="688" dy="1140" grid="1" gridSize="10" guides="1" tooltips="1" connect="1" arrows="1" fold="1" page="1" pageScale="1" pageWidth="827" pageHeight="1169" math="0" shadow="0">
      <root>
        <mxCell id="0" />
        <mxCell id="1" parent="0" />
        <mxCell id="F6-wfNgzxc9v37E4wIFG-1" value="" style="rounded=0;whiteSpace=wrap;html=1;" vertex="1" parent="1">
          <mxGeometry x="200" y="260" width="120" height="60" as="geometry" />
        </mxCell>
        <mxCell id="F6-wfNgzxc9v37E4wIFG-2" value="" style="shape=cylinder;whiteSpace=wrap;html=1;boundedLbl=1;backgroundOutline=1;" vertex="1" parent="1">
          <mxGeometry x="480" y="350" width="60" height="80" as="geometry" />
        </mxCell>
      </root>
    </mxGraphModel>
  </diagram>
</mxfile>
